mastitorrents.com
  
http://mastitorrents.com/forums/index.php
  
http://thepiratebay.se/user/HDvideos/0/7

Bus Stop (2012) - Telugu - CAMRip - XviD - 1CDRip

General 
Complete name : E:Busstop(2012) CAM.avi
Format : AVI 
Format/Info : Audio Video Interleave 
File size : 692 MiB 
Duration : 2h 2mn 
Overall bit rate : 790 Kbps 

Video 
ID : 0 
Format : MPEG-4 Visual 
Format profile : Advanced Simple@L5 
Format settings, BVOP : 2 
Format settings, QPel : Yes 
Format settings, GMC : No warppoints 
Format settings, Matrix : Default (H.263) 
Codec ID : XVID 
Codec ID/Hint : XviD 
Duration : 2h 2mn 
Bit rate : 655 Kbps 
Width : 720 pixels 
Height : 364 pixels 
Display aspect ratio : 1.978 
Frame rate : 29.970 fps 
Color space : YUV 
Chroma subsampling : 4:2:0 
Bit depth : 8 bits 
Scan type : Progressive 
Compression mode : Lossy 
Bits/(Pixel*Frame) : 0.083 
Stream size : 573 MiB (83%) 
Writing library : XviD 1.2.1 (UTC 2008-12-04) 

Audio 
ID : 1 
Format : MPEG Audio 
Format version : Version 1 
Format profile : Layer 3 
Mode : Joint stereo 
Mode extension : MS Stereo 
Codec ID : 55 
Codec ID/Hint : MP3 
Duration : 2h 2mn 
Bit rate mode : Constant 
Bit rate : 128 Kbps 
Channel(s) : 2 channels 
Sampling rate : 48.0 KHz 
Compression mode : Lossy 
Stream size : 112 MiB (16%) 
Alignment : Aligned on interleaves 
Interleave, duration : 133 ms (4.00 video frames) 
Interleave, preload duration : 216 ms 
Title : VTS_02_1 T80 2_0ch 192Kbps DELAY 0ms 
Writing library : LAME3.99r 
Encoding settings : -m j -V 4 -q 2 -lowpass 17 -b 128